<svg height="30" viewBox="0 0 30 30" width="30" xmlns="http://www.w3.org/2000/svg"><path d="m19.0976562 22.5625c1.5390626 0 2.2265626-.71875 2.453125-2.25l1.15625-7.8359375h.1796876c.9609374 0 1.484375-.6015625 1.484375-1.5546875v-1.1875c0-.953125-.5234376-1.5546875-1.484375-1.5546875h-15.77343755c-.9140625 0-1.484375.6015625-1.484375 1.5546875v1.1875c0 .953125.5234375 1.5546875 1.484375 1.5546875h.171875l1.1640625 7.8359375c.2265625 1.5390625.9140625 2.25 2.44531245 2.25zm3.4765626-11.265625h-15.14062505c-.390625 0-.546875-.1640625-.546875-.5546875v-.828125c0-.390625.15625-.5546875.546875-.5546875h15.14062505c.390625 0 .5390624.1640625.5390624.5546875v.828125c0 .390625-.1484374.5546875-.5390624.5546875zm-3.4921876 10.0859375h-8.1640624c-.703125 0-1.10937505-.3125-1.21875005-1.0859375l-1.1640625-7.8203125h12.92968755l-1.1640626 7.8203125c-.1171874.7734375-.53125 1.0859375-1.21875 1.0859375zm-1.8125-1.6328125c.328125 0 .59375-.28125.59375-.609375 0-.1796875-.0703124-.3046875-.1875-.421875l-1.8359374-1.84375 1.84375-1.8671875c.125-.125.1875-.2421875.1875-.40625 0-.3359375-.265625-.6015625-.6015626-.6015625-.15625 0-.28125.0625-.40625.1875l-1.875 1.8515625-1.8515624-1.84375c-.1171876-.1171875-.2421876-.1796875-.40625-.1796875-.3359376 0-.6015626.2578125-.6015626.5859375 0 .171875.0703126.3046875.1796876.4140625l1.84375 1.859375-1.84375 1.8515625c-.109375.109375-.1796876.2421875-.1796876.4140625 0 .328125.265625.609375.6015626.609375.1640624 0 .3046874-.078125.4140624-.1875l1.84375-1.8515625 1.859375 1.8515625c.109375.1015625.2421876.1875.421875.1875z" fill="#d64545"/></svg>