<svg height="16" viewBox="0 0 16 16" width="16" xmlns="http://www.w3.org/2000/svg"><path d="m13.035293 15.6417383c1.743164 0 2.6064453-.8632813 2.6064453-2.5732422v-10.13525391c0-1.70996094-.8632813-2.57324219-2.6064453-2.57324219h-10.06884769c-1.73486328 0-2.60644531.85498047-2.60644531 2.57324219v10.13525391c0 1.7182617.87158203 2.5732422 2.60644531 2.5732422zm-4.26660159-3.569336-3.453125-3.26220699c-.47314454-.43164062-.47314454-1.1953125 0-1.62695312l3.453125-3.26220703c.25732421-.24072266.63916015-.24902344.87158203-.02490235.25732422.24072266.265625.65576172.01660156.8881836l-3.41162109 3.20410156 3.41162109 3.22070313c.24072266.2324219.24902344.6308594-.00830078.8881836-.21582031.2075195-.64746094.190918-.87988281-.0249024z" fill="#627d98"/></svg>