<?xml version="1.0" encoding="UTF-8"?>
<svg width="18px" height="16px" viewBox="0 0 18 16" version="1.1" xmlns="http://www.w3.org/2000/svg" xmlns:xlink="http://www.w3.org/1999/xlink">
    <title>Artboard</title>
    <g id="Artboard" stroke="none" stroke-width="1" fill="none" fill-rule="evenodd">
        <path d="M15.510625,15.9838867 C16.7972461,15.9838867 17.6273242,15.0292969 17.6273242,13.8588867 C17.6273242,13.5102539 17.5360156,13.1533203 17.3533984,12.8212891 L10.8289844,1.16699219 C10.4305469,0.444824219 9.71667969,0.0795898438 9.0028125,0.0795898438 C8.28894531,0.0795898438 7.56677734,0.444824219 7.16833984,1.16699219 L0.652226562,12.8212891 C0.469609375,13.1616211 0.37,13.5102539 0.37,13.8588867 C0.37,15.0292969 1.20007812,15.9838867 2.48669922,15.9838867 L15.510625,15.9838867 Z M9.01111328,10.2729492 C8.52136719,10.2729492 8.23914062,9.99902344 8.22253906,9.50927734 L8.10632812,5.35888672 C8.08972656,4.84423828 8.45496094,4.48730469 9.0028125,4.48730469 C9.5340625,4.48730469 9.92419922,4.85253906 9.90759766,5.3671875 L9.77478516,9.50097656 C9.75818359,10.0073242 9.48425781,10.2729492 9.01111328,10.2729492 Z M9.01111328,13.1450195 C8.44666016,13.1450195 7.98181641,12.7382812 7.98181641,12.1904297 C7.98181641,11.6425781 8.43835937,11.2358398 9.01111328,11.2358398 C9.57556641,11.2358398 10.0321094,11.6425781 10.0321094,12.1904297 C10.0321094,12.746582 9.56726562,13.1450195 9.01111328,13.1450195 Z" id="Group" fill="#E5A510" fill-rule="nonzero"></path>
    </g>
</svg>